# xmcd
#
# Track frame offsets: 
#        150
#        8652
#        31402
#        42017
#        51802
#        68087
#        79542
#        101625
#        117890
#        133590
#        144417
#        159642
#        180480
#        193620
#        209160
#
# Disc length: 2934 seconds
#
# Revision: 2
# Processed by: cddbd v1.5.2PL0 Copyright (c) Steve Scherf et al.
# Submitted via: ExactAudioCopy v1.0b3
#
DISCID=c70b740f
DTITLE=Various Artist - ROCK is LOFT -Yellow Disc- Disc 1 VICL-61931-
DTITLE=32
DYEAR=2006
DGENRE=Rock
TTITLE0=ANARCHY  - ノット・サティスファイド
TTITLE1=THE ROOSTERS  - C.M.C. 
TTITLE2=TH eROCKERS  - 非常線をぶち破れ
TTITLE3=ザ・スターリン - ロマンチスト
TTITLE4=頭脳警察  - コミック雑誌なんか要らない
TTITLE5=ARB  - 魂こがして
TTITLE6=THE MODS - TWO PUNKS
TTITLE7=THE STAR CLUB  - BLACKGUARD ANGEL
TTITLE8=GASTUNK  - GERONIMO
TTITLE9=THE RYDERS  - SO PASSION
TTITLE10=LAUGHIN' NOSE  - Get The Glory
TTITLE11=the pillows  - ストレンジカメレオン (STRANGE VERSION)
TTITLE12=BALZAC  - WALL 
TTITLE13=ミッシェル・ガン・エレファント  - スモーキンビリー 
TTITLE14=The ピーズ  - 肉のうた
EXTD=YEAR: 2006
EXTT0=
EXTT1=
EXTT2=
EXTT3=
EXTT4=
EXTT5=
EXTT6=
EXTT7=
EXTT8=
EXTT9=
EXTT10=
EXTT11=
EXTT12=
EXTT13=
EXTT14=
PLAYORDER=
